<?xml version="1.0" encoding="utf-8"?>
<!-- Generator: Adobe Illustrator 16.0.0, SVG Export Plug-In . SVG Version: 6.00 Build 0)  -->
<!DOCTYPE svg PUBLIC "-//W3C//DTD SVG 1.1//EN" "http://www.w3.org/Graphics/SVG/1.1/DTD/svg11.dtd">
<svg version="1.1" id="Layer_1" xmlns="http://www.w3.org/2000/svg" xmlns:xlink="http://www.w3.org/1999/xlink" x="0px" y="0px"
	 width="200px" height="200px" viewBox="0 0 200 200" enable-background="new 0 0 200 200" xml:space="preserve">
<g>
	<circle fill="none" stroke="#010101" stroke-miterlimit="10" cx="152.3" cy="6.82" r="2.82"/>
	<circle fill="none" stroke="#010101" stroke-miterlimit="10" cx="152.3" cy="16.22" r="2.82"/>
	<circle fill="none" stroke="#010101" stroke-miterlimit="10" cx="152.3" cy="25.62" r="2.82"/>
	<path fill="none" stroke="#010101" stroke-miterlimit="10" d="M141.768,58.059c-1.102,1.1-2.89,1.1-3.991,0
		c-1.099-1.102-1.099-2.888,0.003-3.988c1.099-1.102,2.887-1.102,3.988-0.001C142.865,55.171,142.865,56.958,141.768,58.059z"/>
	<circle fill="none" stroke="#010101" stroke-miterlimit="10" cx="133.122" cy="62.711" r="2.82"/>
	<circle fill="none" stroke="#010101" stroke-miterlimit="10" cx="126.478" cy="69.358" r="2.82"/>
	<path fill="none" stroke="#010101" stroke-miterlimit="10" d="M180.262,19.566c-1.102,1.101-2.891,1.101-3.992,0
		c-1.098-1.102-1.098-2.887,0.004-3.987c1.098-1.102,2.887-1.102,3.988-0.001C181.359,16.679,181.359,18.464,180.262,19.566z"/>
	<circle fill="none" stroke="#010101" stroke-miterlimit="10" cx="171.616" cy="24.219" r="2.82"/>
	<circle fill="none" stroke="#010101" stroke-miterlimit="10" cx="164.97" cy="30.865" r="2.82"/>
	<path fill="none" stroke="#010101" stroke-miterlimit="10" d="M166.877,54.066c1.102,1.102,1.102,2.89,0,3.991
		c-1.102,1.098-2.886,1.098-3.987-0.003c-1.102-1.098-1.102-2.886,0-3.988C163.991,52.968,165.775,52.968,166.877,54.066z"/>
	<circle fill="none" stroke="#010101" stroke-miterlimit="10" cx="171.531" cy="62.711" r="2.82"/>
	<circle fill="none" stroke="#010101" stroke-miterlimit="10" cx="178.178" cy="69.357" r="2.82"/>
	<path fill="none" stroke="#010101" stroke-miterlimit="10" d="M128.305,15.49c1.1,1.103,1.1,2.89,0,3.991
		c-1.102,1.098-2.887,1.098-3.988-0.003c-1.102-1.098-1.102-2.885-0.002-3.988C125.418,14.392,127.203,14.392,128.305,15.49z"/>
	<circle fill="none" stroke="#010101" stroke-miterlimit="10" cx="132.957" cy="24.135" r="2.82"/>
	<circle fill="none" stroke="#010101" stroke-miterlimit="10" cx="139.603" cy="30.781" r="2.82"/>
	<circle fill="none" stroke="#010101" stroke-miterlimit="10" cx="152.3" cy="61.34" r="2.82"/>
	<circle fill="none" stroke="#010101" stroke-miterlimit="10" cx="152.3" cy="70.74" r="2.82"/>
	<circle fill="none" stroke="#010101" stroke-miterlimit="10" cx="152.3" cy="80.14" r="2.82"/>
	<circle fill="none" stroke="#010101" stroke-miterlimit="10" cx="169.983" cy="43.48" r="2.82"/>
	<circle fill="none" stroke="#010101" stroke-miterlimit="10" cx="179.384" cy="43.48" r="2.82"/>
	<circle fill="none" stroke="#010101" stroke-miterlimit="10" cx="188.784" cy="43.48" r="2.82"/>
	<path fill="none" stroke="#010101" stroke-miterlimit="10" d="M94.96,41.6c2.921,0,8.067,2.072,13.046,4.072
		C114.521,48.293,121.254,51,126.92,51c6.707,0,18.403-2.6,25.38-4.311v-7.753c-6.268,1.577-18.896,4.544-25.38,4.544
		c-4.21,0-10.531-2.542-16.106-4.785c-5.902-2.375-11.477-4.615-15.854-4.615c-8.801,0-22.402,6.212-24.223,22.56H57.359
		c-3.113,0-5.64,2.524-5.64,5.64v11.793c-22.635,8.947-38.657,31.01-38.657,56.827c0,33.744,27.355,61.1,61.1,61.1
		s61.1-27.355,61.1-61.1c0-25.729-15.91-47.729-38.423-56.735V62.28c0-3.115-2.528-5.64-5.64-5.64H78.337
		C80.159,44.443,90.667,41.6,94.96,41.6z"/>
</g>
</svg>
