<?xml version="1.0" encoding="utf-8"?>
<!-- Generator: Adobe Illustrator 16.0.0, SVG Export Plug-In . SVG Version: 6.00 Build 0)  -->
<!DOCTYPE svg PUBLIC "-//W3C//DTD SVG 1.1//EN" "http://www.w3.org/Graphics/SVG/1.1/DTD/svg11.dtd">
<svg version="1.1" id="Layer_1" xmlns="http://www.w3.org/2000/svg" xmlns:xlink="http://www.w3.org/1999/xlink" x="0px" y="0px"
	 width="200px" height="200px" viewBox="0 0 200 200" enable-background="new 0 0 200 200" xml:space="preserve">
<g>
	<path fill="none" stroke="#010101" stroke-miterlimit="10" d="M95.708,89.429c0.96-0.269,1.862-0.604,2.71-0.998
		c0.849-0.399,1.559-0.867,2.117-1.408c0.906-0.88,1.059-1.535,0.441-1.961c-0.615-0.428-2.018-0.806-4.22-1.135l-6.76,6.416
		c0.833-0.043,1.756-0.139,2.763-0.286C93.763,89.908,94.749,89.7,95.708,89.429z"/>
	<path fill="none" stroke="#010101" stroke-miterlimit="10" d="M98.544,78.688l5.791-5.418c-0.736,0.023-1.509,0.1-2.323,0.23
		c-0.802,0.128-1.616,0.318-2.426,0.563c-0.816,0.248-1.562,0.543-2.258,0.894c-0.692,0.348-1.291,0.756-1.787,1.215
		c-0.786,0.724-0.938,1.271-0.462,1.651C95.568,78.197,96.721,78.488,98.544,78.688z"/>
	<path fill="none" stroke="#010101" stroke-miterlimit="10" d="M139.804,105.174c0.604,0,1.182-0.239,1.609-0.662l41.202-40.18
		c0.647-0.649,0.845-1.626,0.493-2.478c-0.351-0.85-1.181-1.403-2.1-1.403H54.452c-0.548,0-1.077,0.196-1.492,0.557l-42.758,40.178
		c-0.713,0.622-0.969,1.623-0.637,2.51c0.331,0.891,1.182,1.479,2.13,1.479H139.804z M74.468,86.091l9.287-0.073
		c-1.404,1.248-1.815,2.229-1.243,2.947c0.58,0.723,1.768,1.183,3.574,1.379l7.425-6.945c-0.174-0.042-0.417-0.086-0.723-0.138
		c-0.32-0.051-0.667-0.094-1.054-0.136c-1.375-0.198-2.693-0.436-3.941-0.711c-1.246-0.273-2.222-0.644-2.922-1.117
		c-0.709-0.466-1.03-1.057-0.966-1.769c0.07-0.71,0.702-1.606,1.904-2.686c1.224-1.103,2.724-2.086,4.507-2.954
		c1.777-0.87,3.671-1.613,5.688-2.233c2.015-0.624,4.099-1.125,6.251-1.505c2.151-0.381,4.235-0.639,6.24-0.774l2.726-2.552
		l3.82-0.152l-2.719,2.568c1.816,0.045,3.407,0.201,4.77,0.467c1.368,0.272,2.396,0.674,3.089,1.208
		c0.702,0.538,1.016,1.228,0.956,2.07c-0.062,0.845-0.629,1.856-1.714,3.042l-9.244,0.218c0.899-0.899,1.152-1.65,0.773-2.25
		c-0.385-0.597-1.304-0.874-2.776-0.833l-6.261,5.916c0.452,0.056,0.906,0.112,1.383,0.167c0.473,0.058,0.959,0.128,1.474,0.206
		c2.753,0.39,4.646,0.907,5.699,1.543c1.051,0.645,1.617,1.327,1.7,2.045c0.085,0.721-0.161,1.445-0.751,2.176
		c-0.597,0.731-1.182,1.38-1.76,1.955c-0.514,0.501-1.395,1.137-2.658,1.902c-1.253,0.766-2.883,1.517-4.881,2.246
		c-2.001,0.725-4.351,1.369-7.044,1.924c-2.7,0.554-5.766,0.879-9.185,0.977l-3.007,2.839l-3.939-0.037l3.018-2.824
		c-4.76-0.201-7.802-0.973-9.123-2.312C71.527,90.564,72.071,88.637,74.468,86.091z"/>
	<path fill="none" stroke="#010101" stroke-miterlimit="10" d="M142.468,113.516H9.96v9.1h134.394c1.2,0,2.357-0.479,3.213-1.333
		l35.714-35.386V72.7L142.468,113.516z"/>
	<path fill="none" stroke="#010101" stroke-miterlimit="10" d="M9.96,130.949v9.099h138.941c1.203,0,2.361-0.481,3.215-1.333
		l31.164-31.031v-13l-36.26,36.266H9.96z"/>
</g>
</svg>
