<?xml version="1.0" encoding="utf-8"?>
<!-- Generator: Adobe Illustrator 16.0.0, SVG Export Plug-In . SVG Version: 6.00 Build 0)  -->
<!DOCTYPE svg PUBLIC "-//W3C//DTD SVG 1.1//EN" "http://www.w3.org/Graphics/SVG/1.1/DTD/svg11.dtd">
<svg version="1.1" id="Layer_1" xmlns="http://www.w3.org/2000/svg" xmlns:xlink="http://www.w3.org/1999/xlink" x="0px" y="0px"
	 width="200px" height="200px" viewBox="0 0 200 200" enable-background="new 0 0 200 200" xml:space="preserve">
<g>
	<path fill="none" stroke="#010101" stroke-miterlimit="10" d="M186.049,161.935c-49.356,0-80.516-17.274-80.516-17.274
		l-3.24,14.188h-12.34v-1.696c0-1.389,1.234-2.468,2.468-2.468c2.159,0,2.312-5.242,2.312-8.33c0-3.391-5.552-11.259-5.552-11.259
		l-3.085,15.732l-6.016,8.021H69.9v-1.696c0-1.389,1.234-2.468,2.468-2.468c3.085,0,2.775-2.932,5.398-8.021
		c0.927-3.393-4.164-16.042-3.391-26.992c-9.103-8.483-14.037-15.731-16.659-21.903c-1.544,4.166-3.857,6.479-6.942,7.25
		c-0.926,0.307-2.622,0.307-4.165,0.307c-1.851,0-2.314,0-3.084-0.153c-3.548,0-3.24-5.399,0.307-5.399
		c2.777,0.156,4.782,0.31,5.554,0c1.388-0.308,2.622-2.158,3.547-5.242c-0.307,0-0.771,0-1.08,0c-3.24,0-5.399-0.617-9.102-3.24
		c-2.161-1.851,0.309-5.553,2.777-3.702c2.622,1.851,4.319,2.621,7.712,2.314c0.307,0,0.617,0,0.771-0.154
		c0.309-1.85,0.463-3.547,0.619-4.935c-0.619-5.245-0.463-9.41-2.314-12.648c-4.935-8.945-11.26-18.202-16.196-22.52
		c-3.085-2.777-6.016-3.24-8.33-3.548c0,0-8.637-0.309-11.414-1.08c-2.158-0.617-3.394-1.234-3.701-2.314
		c-0.463-2.006,2.005-3.547,2.777-4.164c5.245-3.394,14.191-4.474,14.345-4.474c9.102,0,13.11,4.164,25.451,19.436
		c12.647,15.732,26.685,11.26,42.726,24.063c17.584,13.883,23.754,23.447,31.466,47.972c8.946,28.535,39.024,33.01,56.608,34.242
		C187.902,159.777,187.747,161.935,186.049,161.935z"/>
</g>
</svg>
