<?xml version="1.0" encoding="utf-8"?>
<!-- Generator: Adobe Illustrator 16.0.0, SVG Export Plug-In . SVG Version: 6.00 Build 0)  -->
<!DOCTYPE svg PUBLIC "-//W3C//DTD SVG 1.1//EN" "http://www.w3.org/Graphics/SVG/1.1/DTD/svg11.dtd">
<svg version="1.1" id="Layer_1" xmlns="http://www.w3.org/2000/svg" xmlns:xlink="http://www.w3.org/1999/xlink" x="0px" y="0px"
	 width="200px" height="200px" viewBox="0 0 200 200" enable-background="new 0 0 200 200" xml:space="preserve">
<g>
	<path fill="none" stroke="#010101" stroke-miterlimit="10" d="M120.167,13.067H74.812v42.72h45.355V13.067L120.167,13.067z
		 M86.479,42.13c-4.131,0-7.485-3.35-7.485-7.486c0-4.132,3.354-7.485,7.485-7.485c4.134,0,7.486,3.353,7.486,7.485
		C93.965,38.78,90.613,42.13,86.479,42.13z M108.498,42.13c-4.135,0-7.482-3.35-7.482-7.486c0-4.132,3.348-7.485,7.482-7.485
		c4.137,0,7.487,3.353,7.487,7.485C115.985,38.78,112.635,42.13,108.498,42.13z M171.489,107.316
		c-0.67-14.49-6.883-24.612-14.536-30.604c-6.327-4.969-13.271-7.353-19.012-8.196v-5.215h-80.9v5.213
		c-5.746,0.845-12.693,3.229-19.019,8.2c-7.662,5.99-13.865,16.107-14.529,30.598c-5.48,1.92-9.421,7.076-9.421,13.203
		c0,7.748,6.276,14.038,14.034,14.041v-6.237c-4.308-0.005-7.791-3.495-7.804-7.806c0.014-4.313,3.495-7.805,7.804-7.808
		c4.314,0.003,7.792,3.494,7.803,7.808h6.238c-0.007-6.269-4.135-11.517-9.807-13.318c0.726-11.875,5.458-18.959,11.168-23.558
		c4.321-3.462,9.399-5.343,13.534-6.162v48.796h7.214v32.079c-8.165,2.889-14.023,10.656-14.023,19.807H92.3
		c0-9.154-5.867-16.918-14.024-19.807v-32.079h38.43v32.079c-8.16,2.889-14.021,10.656-14.021,19.807h42.066
		c0-9.154-5.863-16.918-14.024-19.807v-32.079h7.215V77.478c4.131,0.815,9.207,2.695,13.522,6.158
		c5.714,4.599,10.447,11.681,11.176,23.558c-5.671,1.803-9.814,7.048-9.817,13.318h6.238c0.004-4.305,3.494-7.805,7.813-7.808
		c4.303,0.003,7.788,3.499,7.803,7.808c-0.015,4.305-3.5,7.801-7.803,7.808v6.234c7.746-0.004,14.036-6.287,14.036-14.04
		C180.908,114.382,176.958,109.232,171.489,107.316z M91.456,105.428h-8.045v-8.043h8.045V105.428z M91.456,95.625h-8.045v-8.041
		h8.045V95.625z M101.509,105.428h-8.038v-8.043h8.038V105.428z M101.509,95.625h-8.038v-8.041h8.038V95.625z M111.562,105.428
		h-8.05v-8.043h8.05V105.428z M111.562,95.625h-8.05v-8.041h8.05V95.625z M137.531,28.608c0-6.307-5.118-11.424-11.425-11.424
		v22.854C132.413,40.039,137.531,34.918,137.531,28.608z M68.87,40.039V17.185c-6.309,0-11.421,5.117-11.421,11.424
		C57.449,34.918,62.561,40.039,68.87,40.039z"/>
</g>
</svg>
