<?xml version="1.0" encoding="utf-8"?>
<!-- Generator: Adobe Illustrator 16.0.0, SVG Export Plug-In . SVG Version: 6.00 Build 0)  -->
<!DOCTYPE svg PUBLIC "-//W3C//DTD SVG 1.1//EN" "http://www.w3.org/Graphics/SVG/1.1/DTD/svg11.dtd">
<svg version="1.1" id="Layer_1" xmlns="http://www.w3.org/2000/svg" xmlns:xlink="http://www.w3.org/1999/xlink" x="0px" y="0px"
	 width="200px" height="200px" viewBox="0 0 200 200" enable-background="new 0 0 200 200" xml:space="preserve">
<g>
	<path fill="none" stroke="#010101" stroke-miterlimit="10" d="M189.694,96.842c-0.299-0.25-30.664-24.81-70.948-28.741
		c-3.062-0.297-6.155-0.453-9.197-0.453c-24.908,0-43.148,10.152-51.615,16.019L57.58,64.893c-0.008-0.346-0.212-0.657-0.524-0.808
		c-0.316-0.144-0.685-0.104-0.958,0.114L37.82,78.759l-22.358-6.8c-0.327-0.099-0.692-0.004-0.931,0.247
		c-0.237,0.254-0.309,0.619-0.192,0.946l8.202,21.883L9.163,114.197c-0.196,0.284-0.217,0.659-0.048,0.963
		c0.167,0.306,0.505,0.491,0.841,0.471l23.346-1.037l14.088,18.645c0.175,0.229,0.447,0.363,0.729,0.363
		c0.055,0,0.116-0.008,0.171-0.018c0.34-0.063,0.614-0.318,0.708-0.652l6.227-22.524l22.089-7.638c0.33-0.116,0.564-0.402,0.61-0.75
		c0.042-0.346-0.113-0.681-0.401-0.875l-17.013-11.24c3.076-0.235,6.169-0.208,9.245-0.395c56.291-3.457,94.415,36.598,94.815,36.97
		c0.344,0.315,0.793,0.481,1.238,0.481c0.284,0,0.573-0.066,0.839-0.203c0.682-0.35,0.712-1.316,0.616-2.077l-1.102-11.073
		l11.44,0.887c0.604,0.044,1.902,0.031,2.284-0.425c0.382-0.462,0.52-1.08,0.358-1.656l-2.945-10.684l11.561-1.992
		c0.716-0.103,1.248-0.301,1.442-0.995C190.496,98.044,190.253,97.3,189.694,96.842z M162.314,109.891
		c-0.143,0.16-0.34,0.24-0.541,0.24c-0.176,0-0.351-0.062-0.49-0.188c-14.408-13.012-26.271-20.179-41.594-23.876
		c-11.746-2.834-24.04-4.028-36.411-2.573c-0.411,0.041-0.765-0.24-0.811-0.639c-0.045-0.402,0.239-0.764,0.64-0.81
		c12.548-1.475,24.982-0.331,36.967,2.616c15.537,3.82,27.596,11.022,42.187,24.199C162.561,109.13,162.586,109.592,162.314,109.891
		z M173.436,98.179c-0.14,0.204-0.37,0.312-0.6,0.312c-0.142,0-0.291-0.042-0.418-0.132c-7.851-5.477-28.716-18.593-52.795-22.078
		c-16.322-2.363-31.911,1.622-42.21,4.825c-2.322,0.72-4.611,1.536-6.82,2.42c-0.374,0.149-0.797-0.029-0.948-0.404
		c-0.153-0.375,0.03-0.8,0.406-0.948c2.242-0.901,4.572-1.732,6.926-2.463c10.437-3.247,26.242-7.281,42.856-4.877
		c24.388,3.529,45.484,16.792,53.423,22.327C173.585,97.393,173.664,97.85,173.436,98.179z"/>
</g>
</svg>
