<?xml version="1.0" encoding="utf-8"?>
<!-- Generator: Adobe Illustrator 16.0.0, SVG Export Plug-In . SVG Version: 6.00 Build 0)  -->
<!DOCTYPE svg PUBLIC "-//W3C//DTD SVG 1.1//EN" "http://www.w3.org/Graphics/SVG/1.1/DTD/svg11.dtd">
<svg version="1.1" id="Layer_1" xmlns="http://www.w3.org/2000/svg" xmlns:xlink="http://www.w3.org/1999/xlink" x="0px" y="0px"
	 width="490px" height="653px" viewBox="0 0 490 653" enable-background="new 0 0 490 653" xml:space="preserve">
<g>
	<g>
		<path fill="#262626" d="M387.127,219.923c120.912-12,50.032,136,12.508,158"/>
	</g>
	<ellipse fill="#7C4C31" stroke="#231F20" stroke-width="2" stroke-miterlimit="10" cx="407.127" cy="349.957" rx="24" ry="50"/>
	<g>
		<path fill="#262626" d="M136.683,117.605C-58.276,98.238,56.012,337.104,116.516,372.61"/>
	</g>
	<ellipse fill="#7C4C31" stroke="#2D2829" stroke-width="2" stroke-miterlimit="10" cx="88.095" cy="353.819" rx="24" ry="50"/>
	
		<ellipse fill="#7C4C31" stroke="#2D2829" stroke-width="2" stroke-miterlimit="10" cx="249.611" cy="373.547" rx="154.516" ry="241.385"/>
	<path fill="#8A584E" d="M179.908,529.954c19.857,45.429,82.089,37.542,160.325,3.342"/>
	<path fill="#8A584E" d="M178.088,530.368c14.867-15.671,164.109-23.223,162.822,2.065"/>
	<polyline fill="none" stroke="#414042" stroke-width="7" stroke-miterlimit="10" points="180.632,530.66 217.034,536.089 
		259.545,539.108 305.775,536.288 339.268,530.074 	"/>
	<path fill="#262626" d="M176.572,585.311c19.845,19.891,46.224,60.091,73.038,59.687c27.834-0.418,56.138-42.219,78.082-64.112"/>
	<path fill="none" stroke="#262626" stroke-width="16" stroke-miterlimit="10" d="M164.543,516.109
		c0.875-20.424,39.661-35.317,86.716-33.301"/>
	<path fill="none" stroke="#262626" stroke-width="16" stroke-miterlimit="10" d="M354.266,517.663
		c0.125-16.518-41.121-32.338-92.218-35.373"/>
	
		<ellipse transform="matrix(0.9961 0.0878 -0.0878 0.9961 31.3163 -15.2523)" fill="#F1F1F1" stroke="#414042" stroke-width="2" stroke-miterlimit="10" cx="189.012" cy="348.308" rx="47.764" ry="28.397"/>
	
		<ellipse transform="matrix(0.9999 -0.0126 0.0126 0.9999 -4.3832 3.92)" fill="#F1F1F1" stroke="#414042" stroke-width="2" stroke-miterlimit="10" cx="309.553" cy="350.541" rx="47.764" ry="28.626"/>
	<g>
		<path fill="none" stroke="#262626" stroke-width="3" stroke-miterlimit="10" d="M236.997,439.864
			c21.499,17,44.62,0.268,67.163-51.899"/>
		<path fill="none" stroke="#262626" stroke-width="3" stroke-miterlimit="10" d="M200.104,377.115
			c0,15.952,26.375,69.749,55.392,69.749"/>
	</g>
	<polygon fill="#F1F1F1" stroke="#414142" stroke-miterlimit="10" points="423.393,376.965 418.826,384.874 409.693,384.874 
		405.126,376.965 409.693,369.056 418.826,369.056 	"/>
	
		<line fill="none" stroke="#262626" stroke-width="16" stroke-miterlimit="10" x1="146.761" y1="294.265" x2="218.386" y2="282.265"/>
	
		<line fill="none" stroke="#262626" stroke-width="15" stroke-miterlimit="10" x1="276.894" y1="296.765" x2="353.714" y2="315.765"/>
	<g>
		<path fill="#262626" d="M110.062,225.54c-50.917,7.469-86.667-39.476-89.917-84.287c-2.166-24.539,20.583-29.875,28.167-49.079
			c10.833-23.472-13-36.275,17.333-49.078c4.333-2.134,8.666,0,11.916-2.134c9.75-5.334,15.168-18.138,24.918-23.472
			c29.25-17.071,35.75,2.133,59.584,8.535c24.917,6.401,54.167-21.339,82.333-19.205c28.167,3.201,60.669,13.87,89.918,18.137
			c30.333,6.402,82.334,12.804,102.917,37.343c9.75,10.669,9.75,27.74,17.333,39.476c2.168,3.201,10.835,8.536,10.835,9.602
			c4.333,8.536,3.251,17.071,3.251,26.673c1.082,18.138,5.416,34.142,7.583,52.279c4.333,35.208-22.752,83.221-59.585,88.555
			c-23.833,3.201-27.083-7.468-46.584-13.87c-17.333-5.334-36.833,9.603-55.249,6.401c-10.835-2.133-14.084-7.468-22.75-14.937
			c-18.419-14.937-40.085-11.737-65.002-13.87c-33.583-3.201-67.168,7.468-99.668,5.334c-5.416,0-13-4.268-18.416-4.268
			c-10.833,1.067-10.833,9.603-22.751,8.536c-19.5-1.067-17.333-20.271-17.333-33.075"/>
	</g>
	
		<ellipse fill="#1E1E1E" stroke="#414042" stroke-width="2" stroke-miterlimit="10" cx="307.285" cy="350.957" rx="11.019" ry="6.613"/>
	
		<ellipse fill="#1E1E1E" stroke="#414042" stroke-width="2" stroke-miterlimit="10" cx="193.03" cy="349.007" rx="11.019" ry="6.613"/>
</g>
</svg>
