<?xml version="1.0" encoding="utf-8"?>
<!-- Generator: Adobe Illustrator 16.0.0, SVG Export Plug-In . SVG Version: 6.00 Build 0)  -->
<!DOCTYPE svg PUBLIC "-//W3C//DTD SVG 1.1//EN" "http://www.w3.org/Graphics/SVG/1.1/DTD/svg11.dtd">
<svg version="1.1" id="Layer_1" xmlns="http://www.w3.org/2000/svg" xmlns:xlink="http://www.w3.org/1999/xlink" x="0px" y="0px"
	 width="490px" height="653px" viewBox="0 0 490 653" enable-background="new 0 0 490 653" xml:space="preserve">
<g>
	<ellipse fill="#2E3F99" cx="245.985" cy="196.163" rx="204.993" ry="91.347"/>
	<ellipse fill="#603B33" stroke="#414142" stroke-miterlimit="10" cx="72.625" cy="306.412" rx="24" ry="50.001"/>
	<polygon fill="#F1F1F1" stroke="#414142" stroke-miterlimit="10" points="74.625,338.987 70.059,346.896 60.926,346.896 
		56.359,338.987 60.926,331.078 70.059,331.078 	"/>
	<g>
		<ellipse fill="#603B33" stroke="#414142" stroke-miterlimit="10" cx="400.625" cy="306.412" rx="24" ry="50.001"/>
		<polygon fill="#F1F1F1" stroke="#414142" stroke-miterlimit="10" points="424.625,331.078 420.059,338.987 410.926,338.987 
			406.359,331.078 410.926,323.168 420.059,323.168 		"/>
	</g>
	<ellipse fill="#603B33" stroke="#414142" stroke-miterlimit="10" cx="241.367" cy="354.658" rx="165.742" ry="237.738"/>
	<path fill="#2E3F99" d="M42.637,186.328C67.513,126.226,156.545,68.877,239.473,64.536c42.619-2.23,106.576,4.81,150.26,32.499
		c27.686,17.548,45.973,45.657,56.629,79.766"/>
	<g>
		<path fill="none" stroke="#262626" stroke-width="3" stroke-miterlimit="10" d="M225.827,427.817
			c21.499,17,44.62,0.268,67.163-51.899"/>
		<path fill="none" stroke="#262626" stroke-width="3" stroke-miterlimit="10" d="M188.935,365.068
			c0,15.952,26.375,69.749,55.392,69.749"/>
	</g>
	<g>
		
			<line fill="none" stroke="#E7B222" stroke-width="3" stroke-miterlimit="10" x1="126.122" y1="326.412" x2="67.625" y2="285.915"/>
		<path fill="#090708" stroke="#E4B123" stroke-width="3" stroke-miterlimit="10" d="M226.617,368.41c0,6.628-5.373,12-12,12
			h-76.495c-6.627,0-12-5.372-12-12v-70.496c0-6.627,5.373-12,12-12h76.495c6.627,0,12,5.373,12,12V368.41z"/>
		
			<line fill="none" stroke="#E7B222" stroke-width="3" stroke-miterlimit="10" x1="267.115" y1="285.915" x2="211.992" y2="285.915"/>
		<path fill="#090708" stroke="#E4B123" stroke-width="3" stroke-miterlimit="10" d="M352.648,368.41c0,6.628-5.373,12-12,12
			h-76.496c-6.627,0-12-5.372-12-12v-70.496c0-6.627,5.373-12,12-12h76.496c6.627,0,12,5.373,12,12V368.41z"/>
		
			<line fill="none" stroke="#E7B222" stroke-width="3" stroke-miterlimit="10" x1="352.803" y1="323.987" x2="408.991" y2="280.342"/>
		
			<line fill="none" stroke="#E7B222" stroke-width="8" stroke-miterlimit="10" x1="253.072" y1="306.412" x2="225.492" y2="306.412"/>
	</g>
	<path fill="#CFACA7" d="M171.165,509.187c11.449,28.461,79.896,27.683,153.032-1.738"/>
	<path fill="#CFACA7" d="M170.118,506.539c9.189-27.122,78.116-28.232,154.108-2.482"/>
	
		<line fill="none" stroke="#262626" stroke-width="16" stroke-miterlimit="10" x1="163.672" y1="467.817" x2="235.297" y2="455.817"/>
	
		<line fill="none" stroke="#262626" stroke-width="15" stroke-miterlimit="10" x1="243.172" y1="455.817" x2="319.992" y2="474.817"/>
	<path fill="#262626" d="M161.182,562.768c44.219,44.32,115.947,44.321,160.371,0"/>
	
		<line fill="none" stroke="#414042" stroke-width="2" stroke-miterlimit="10" x1="171.165" y1="509.187" x2="319.992" y2="506.539"/>
	<path fill="none" stroke="#BE1E2D" stroke-width="30" stroke-miterlimit="10" d="M86.451,252.767
		c21.468-57.231,207.746-163.403,319.981,2.916"/>
	<g>
		<path fill="#FFFFFF" d="M250.364,136.352l0.527-2.32c0.726-0.07,1.576-0.17,2.549-0.298c0.972-0.128,1.728-0.274,2.268-0.438
			c0.726-0.233,1.271-0.479,1.635-0.736c0.363-0.257,0.545-0.655,0.545-1.193c0-0.187-0.14-1.332-0.417-3.437
			c-0.279-2.104-0.674-5.062-1.184-8.874h-17.524c-0.773,1.216-1.592,2.625-2.459,4.227c-0.867,1.602-1.534,2.823-2.002,3.665
			c-0.422,0.748-0.826,1.584-1.212,2.508c-0.387,0.924-0.58,1.538-0.58,1.842c0,0.771,0.621,1.391,1.863,1.858
			c1.242,0.468,2.8,0.761,4.676,0.877l-0.527,2.32h-19.155l0.527-2.32c0.61-0.047,1.401-0.181,2.373-0.404
			c0.973-0.223,1.788-0.521,2.443-0.896c0.82-0.469,1.611-1.049,2.373-1.74c0.761-0.691,1.576-1.728,2.443-3.111
			c4.055-6.421,8.502-13.57,13.342-21.445s9.1-14.766,12.779-20.672h2.812l6.645,43.207c0.141,0.867,0.375,1.6,0.703,2.197
			s0.82,1.155,1.477,1.67c0.469,0.329,1.102,0.604,1.898,0.826c0.797,0.223,1.5,0.346,2.109,0.369l-0.527,2.32H250.364z
			 M255.762,116.102l-3.136-19.469l-11.949,19.469H255.762z"/>
	</g>
</g>
</svg>
